<svg xmlns="http://www.w3.org/2000/svg" width="944" height="356"
  viewBox="0 0 944 356" font-family="Helvetica, Arial, sans-serif">
  <rect width="944" height="356" fill="#ffffff"></rect>
  <g>
    <text x="56.0" y="22.0" font-size="12" font-weight="700" fill="#16161a">a) Find × Text  (n 22 vs 21)</text>
    <text x="56.0" y="32.0" font-size="9.5" fill="#5c5c66">2 rows above the axis</text>
    <line x1="56.0" y1="284.0"
        x2="236.0" y2="284.0"
        stroke="#d8d8e0" stroke-width="1" ></line>
      <text x="50.0" y="287.5" text-anchor="end"
        font-size="9.5" fill="#5c5c66">0</text><line x1="56.0" y1="200.7"
        x2="236.0" y2="200.7"
        stroke="#d8d8e0" stroke-width="1" opacity="0.6"></line>
      <text x="50.0" y="204.2" text-anchor="end"
        font-size="9.5" fill="#5c5c66">200</text><line x1="56.0" y1="117.3"
        x2="236.0" y2="117.3"
        stroke="#d8d8e0" stroke-width="1" opacity="0.6"></line>
      <text x="50.0" y="120.8" text-anchor="end"
        font-size="9.5" fill="#5c5c66">400</text><line x1="56.0" y1="34.0"
        x2="236.0" y2="34.0"
        stroke="#d8d8e0" stroke-width="1" opacity="0.6"></line>
      <text x="50.0" y="37.5" text-anchor="end"
        font-size="9.5" fill="#5c5c66">600</text>
    <g>
    <line x1="123.0" y1="82.7" x2="123.0" y2="142.4" stroke="#16161a" stroke-width="1"></line>
    <line x1="123.0" y1="224.5" x2="123.0" y2="273.8" stroke="#16161a" stroke-width="1"></line>
    <line x1="112.0" y1="82.7" x2="134.0" y2="82.7" stroke="#16161a" stroke-width="1"></line>
    <line x1="112.0" y1="273.8" x2="134.0" y2="273.8" stroke="#16161a" stroke-width="1"></line>
    <rect x="101.0" y="142.4" width="44.0"
      height="82.2" rx="2"
      fill="#bf5a64" fill-opacity="0.85" stroke="#16161a" stroke-width="1"></rect>
    <line x1="101.0" y1="195.1" x2="145.0" y2="195.1" stroke="#16161a" stroke-width="1.6"></line>
    <circle cx="123.4" cy="273.8" r="1.9" fill="#16161a" opacity="0.42"></circle><circle cx="111.4" cy="253.3" r="1.9" fill="#16161a" opacity="0.42"></circle><circle cx="115.9" cy="252.8" r="1.9" fill="#16161a" opacity="0.42"></circle><circle cx="135.5" cy="228.4" r="1.9" fill="#16161a" opacity="0.42"></circle><circle cx="108.4" cy="228.2" r="1.9" fill="#16161a" opacity="0.42"></circle><circle cx="128.0" cy="227.6" r="1.9" fill="#16161a" opacity="0.42"></circle><circle cx="132.5" cy="215.3" r="1.9" fill="#16161a" opacity="0.42"></circle><circle cx="120.4" cy="204.7" r="1.9" fill="#16161a" opacity="0.42"></circle><circle cx="121.9" cy="202.3" r="1.9" fill="#16161a" opacity="0.42"></circle><circle cx="109.9" cy="195.2" r="1.9" fill="#16161a" opacity="0.42"></circle><circle cx="126.1" cy="195.1" r="1.9" fill="#16161a" opacity="0.42"></circle><circle cx="138.2" cy="195.1" r="1.9" fill="#16161a" opacity="0.42"></circle><circle cx="133.7" cy="190.6" r="1.9" fill="#16161a" opacity="0.42"></circle><circle cx="114.1" cy="172.9" r="1.9" fill="#16161a" opacity="0.42"></circle><circle cx="111.1" cy="162.6" r="1.9" fill="#16161a" opacity="0.42"></circle><circle cx="123.1" cy="155.3" r="1.9" fill="#16161a" opacity="0.42"></circle><circle cx="118.6" cy="138.0" r="1.9" fill="#16161a" opacity="0.42"></circle><circle cx="130.7" cy="124.0" r="1.9" fill="#16161a" opacity="0.42"></circle><circle cx="124.6" cy="91.7" r="1.9" fill="#16161a" opacity="0.42"></circle><circle cx="136.7" cy="82.7" r="1.9" fill="#16161a" opacity="0.42"></circle><circle cx="108.6" cy="34.0" r="1.9" fill="#16161a" opacity="0.42"></circle><circle cx="128.2" cy="34.0" r="1.9" fill="#16161a" opacity="0.42"></circle>
  </g><g>
    <line x1="169.0" y1="143.2" x2="169.0" y2="197.1" stroke="#16161a" stroke-width="1"></line>
    <line x1="169.0" y1="246.0" x2="169.0" y2="273.0" stroke="#16161a" stroke-width="1"></line>
    <line x1="158.0" y1="143.2" x2="180.0" y2="143.2" stroke="#16161a" stroke-width="1"></line>
    <line x1="158.0" y1="273.0" x2="180.0" y2="273.0" stroke="#16161a" stroke-width="1"></line>
    <rect x="147.0" y="197.1" width="44.0"
      height="48.9" rx="2"
      fill="#5183c9" fill-opacity="0.85" stroke="#16161a" stroke-width="1"></rect>
    <line x1="147.0" y1="214.0" x2="191.0" y2="214.0" stroke="#16161a" stroke-width="1.6"></line>
    <circle cx="177.3" cy="273.0" r="1.9" fill="#16161a" opacity="0.42"></circle><circle cx="157.7" cy="270.8" r="1.9" fill="#16161a" opacity="0.42"></circle><circle cx="153.2" cy="269.0" r="1.9" fill="#16161a" opacity="0.42"></circle><circle cx="165.3" cy="267.8" r="1.9" fill="#16161a" opacity="0.42"></circle><circle cx="160.7" cy="254.5" r="1.9" fill="#16161a" opacity="0.42"></circle><circle cx="172.8" cy="246.0" r="1.9" fill="#16161a" opacity="0.42"></circle><circle cx="168.3" cy="245.4" r="1.9" fill="#16161a" opacity="0.42"></circle><circle cx="180.3" cy="242.4" r="1.9" fill="#16161a" opacity="0.42"></circle><circle cx="178.9" cy="223.7" r="1.9" fill="#16161a" opacity="0.42"></circle><circle cx="159.2" cy="220.0" r="1.9" fill="#16161a" opacity="0.42"></circle><circle cx="164.8" cy="214.0" r="1.9" fill="#16161a" opacity="0.42"></circle><circle cx="184.4" cy="206.0" r="1.9" fill="#16161a" opacity="0.42"></circle><circle cx="172.4" cy="203.1" r="1.9" fill="#16161a" opacity="0.42"></circle><circle cx="160.3" cy="202.0" r="1.9" fill="#16161a" opacity="0.42"></circle><circle cx="179.9" cy="199.0" r="1.9" fill="#16161a" opacity="0.42"></circle><circle cx="167.8" cy="197.1" r="1.9" fill="#16161a" opacity="0.42"></circle><circle cx="155.8" cy="194.3" r="1.9" fill="#16161a" opacity="0.42"></circle><circle cx="175.4" cy="184.0" r="1.9" fill="#16161a" opacity="0.42"></circle><circle cx="166.3" cy="145.6" r="1.9" fill="#16161a" opacity="0.42"></circle><circle cx="154.3" cy="143.2" r="1.9" fill="#16161a" opacity="0.42"></circle><circle cx="160.1" cy="107.7" r="1.9" fill="#16161a" opacity="0.42"></circle>
  </g>
    <text transform="translate(24.0,159.0) rotate(-90)"
      text-anchor="middle" font-size="10.5" fill="#5c5c66">Time (s), correct answers only</text>
  </g><g>
    <text x="286.0" y="22.0" font-size="12" font-weight="700" fill="#16161a">b) Find × Visual  (n 16 vs 16)</text>
    <text x="286.0" y="32.0" font-size="9.5" fill="#5c5c66">3 rows above the axis</text>
    <line x1="286.0" y1="284.0"
        x2="466.0" y2="284.0"
        stroke="#d8d8e0" stroke-width="1" ></line>
      <text x="280.0" y="287.5" text-anchor="end"
        font-size="9.5" fill="#5c5c66">0</text><line x1="286.0" y1="221.5"
        x2="466.0" y2="221.5"
        stroke="#d8d8e0" stroke-width="1" opacity="0.6"></line>
      <text x="280.0" y="225.0" text-anchor="end"
        font-size="9.5" fill="#5c5c66">100</text><line x1="286.0" y1="159.0"
        x2="466.0" y2="159.0"
        stroke="#d8d8e0" stroke-width="1" opacity="0.6"></line>
      <text x="280.0" y="162.5" text-anchor="end"
        font-size="9.5" fill="#5c5c66">200</text><line x1="286.0" y1="96.5"
        x2="466.0" y2="96.5"
        stroke="#d8d8e0" stroke-width="1" opacity="0.6"></line>
      <text x="280.0" y="100.0" text-anchor="end"
        font-size="9.5" fill="#5c5c66">300</text><line x1="286.0" y1="34.0"
        x2="466.0" y2="34.0"
        stroke="#d8d8e0" stroke-width="1" opacity="0.6"></line>
      <text x="280.0" y="37.5" text-anchor="end"
        font-size="9.5" fill="#5c5c66">400</text>
    <g>
    <line x1="353.0" y1="116.5" x2="353.0" y2="149.6" stroke="#16161a" stroke-width="1"></line>
    <line x1="353.0" y1="204.3" x2="353.0" y2="246.0" stroke="#16161a" stroke-width="1"></line>
    <line x1="342.0" y1="116.5" x2="364.0" y2="116.5" stroke="#16161a" stroke-width="1"></line>
    <line x1="342.0" y1="246.0" x2="364.0" y2="246.0" stroke="#16161a" stroke-width="1"></line>
    <rect x="331.0" y="149.6" width="44.0"
      height="54.6" rx="2"
      fill="#bf5a64" fill-opacity="0.85" stroke="#16161a" stroke-width="1"></rect>
    <line x1="331.0" y1="183.4" x2="375.0" y2="183.4" stroke="#16161a" stroke-width="1.6"></line>
    <circle cx="366.1" cy="246.0" r="1.9" fill="#16161a" opacity="0.42"></circle><circle cx="346.5" cy="221.6" r="1.9" fill="#16161a" opacity="0.42"></circle><circle cx="342.0" cy="212.2" r="1.9" fill="#16161a" opacity="0.42"></circle><circle cx="354.1" cy="208.8" r="1.9" fill="#16161a" opacity="0.42"></circle><circle cx="349.5" cy="202.8" r="1.9" fill="#16161a" opacity="0.42"></circle><circle cx="361.6" cy="192.5" r="1.9" fill="#16161a" opacity="0.42"></circle><circle cx="357.1" cy="189.7" r="1.9" fill="#16161a" opacity="0.42"></circle><circle cx="337.5" cy="187.7" r="1.9" fill="#16161a" opacity="0.42"></circle><circle cx="364.6" cy="179.1" r="1.9" fill="#16161a" opacity="0.42"></circle><circle cx="345.0" cy="177.9" r="1.9" fill="#16161a" opacity="0.42"></circle><circle cx="349.8" cy="163.1" r="1.9" fill="#16161a" opacity="0.42"></circle><circle cx="337.8" cy="160.7" r="1.9" fill="#16161a" opacity="0.42"></circle><circle cx="357.4" cy="116.5" r="1.9" fill="#16161a" opacity="0.42"></circle><circle cx="345.3" cy="55.7" r="1.9" fill="#16161a" opacity="0.42"></circle><circle cx="364.9" cy="34.0" r="1.9" fill="#16161a" opacity="0.42"></circle><circle cx="352.8" cy="34.0" r="1.9" fill="#16161a" opacity="0.42"></circle>
  </g><g>
    <line x1="399.0" y1="147.3" x2="399.0" y2="189.6" stroke="#16161a" stroke-width="1"></line>
    <line x1="399.0" y1="231.9" x2="399.0" y2="264.7" stroke="#16161a" stroke-width="1"></line>
    <line x1="388.0" y1="147.3" x2="410.0" y2="147.3" stroke="#16161a" stroke-width="1"></line>
    <line x1="388.0" y1="264.7" x2="410.0" y2="264.7" stroke="#16161a" stroke-width="1"></line>
    <rect x="377.0" y="189.6" width="44.0"
      height="42.3" rx="2"
      fill="#5183c9" fill-opacity="0.85" stroke="#16161a" stroke-width="1"></rect>
    <line x1="377.0" y1="213.6" x2="421.0" y2="213.6" stroke="#16161a" stroke-width="1.6"></line>
    <circle cx="397.6" cy="264.7" r="1.9" fill="#16161a" opacity="0.42"></circle><circle cx="385.5" cy="260.3" r="1.9" fill="#16161a" opacity="0.42"></circle><circle cx="405.1" cy="238.0" r="1.9" fill="#16161a" opacity="0.42"></circle><circle cx="393.1" cy="237.9" r="1.9" fill="#16161a" opacity="0.42"></circle><circle cx="412.7" cy="229.9" r="1.9" fill="#16161a" opacity="0.42"></circle><circle cx="400.6" cy="217.4" r="1.9" fill="#16161a" opacity="0.42"></circle><circle cx="388.5" cy="214.9" r="1.9" fill="#16161a" opacity="0.42"></circle><circle cx="408.2" cy="213.7" r="1.9" fill="#16161a" opacity="0.42"></circle><circle cx="396.1" cy="213.4" r="1.9" fill="#16161a" opacity="0.42"></circle><circle cx="384.0" cy="212.9" r="1.9" fill="#16161a" opacity="0.42"></circle><circle cx="395.1" cy="211.9" r="1.9" fill="#16161a" opacity="0.42"></circle><circle cx="407.2" cy="191.2" r="1.9" fill="#16161a" opacity="0.42"></circle><circle cx="387.6" cy="184.8" r="1.9" fill="#16161a" opacity="0.42"></circle><circle cx="399.6" cy="163.8" r="1.9" fill="#16161a" opacity="0.42"></circle><circle cx="410.2" cy="147.9" r="1.9" fill="#16161a" opacity="0.42"></circle><circle cx="390.6" cy="147.3" r="1.9" fill="#16161a" opacity="0.42"></circle>
  </g>
    
  </g><g>
    <text x="516.0" y="22.0" font-size="12" font-weight="700" fill="#16161a">c) Guide × Text  (n 9 vs 16)</text>
    <text x="516.0" y="32.0" font-size="9.5" fill="#5c5c66">1 row above the axis</text>
    <line x1="516.0" y1="284.0"
        x2="696.0" y2="284.0"
        stroke="#d8d8e0" stroke-width="1" ></line>
      <text x="510.0" y="287.5" text-anchor="end"
        font-size="9.5" fill="#5c5c66">0</text><line x1="516.0" y1="221.5"
        x2="696.0" y2="221.5"
        stroke="#d8d8e0" stroke-width="1" opacity="0.6"></line>
      <text x="510.0" y="225.0" text-anchor="end"
        font-size="9.5" fill="#5c5c66">100</text><line x1="516.0" y1="159.0"
        x2="696.0" y2="159.0"
        stroke="#d8d8e0" stroke-width="1" opacity="0.6"></line>
      <text x="510.0" y="162.5" text-anchor="end"
        font-size="9.5" fill="#5c5c66">200</text><line x1="516.0" y1="96.5"
        x2="696.0" y2="96.5"
        stroke="#d8d8e0" stroke-width="1" opacity="0.6"></line>
      <text x="510.0" y="100.0" text-anchor="end"
        font-size="9.5" fill="#5c5c66">300</text><line x1="516.0" y1="34.0"
        x2="696.0" y2="34.0"
        stroke="#d8d8e0" stroke-width="1" opacity="0.6"></line>
      <text x="510.0" y="37.5" text-anchor="end"
        font-size="9.5" fill="#5c5c66">400</text>
    <g>
    <line x1="583.0" y1="221.2" x2="583.0" y2="221.2" stroke="#16161a" stroke-width="1"></line>
    <line x1="583.0" y1="250.1" x2="583.0" y2="271.2" stroke="#16161a" stroke-width="1"></line>
    <line x1="572.0" y1="221.2" x2="594.0" y2="221.2" stroke="#16161a" stroke-width="1"></line>
    <line x1="572.0" y1="271.2" x2="594.0" y2="271.2" stroke="#16161a" stroke-width="1"></line>
    <rect x="561.0" y="221.2" width="44.0"
      height="28.9" rx="2"
      fill="#bf5a64" fill-opacity="0.85" stroke="#16161a" stroke-width="1"></rect>
    <line x1="561.0" y1="240.8" x2="605.0" y2="240.8" stroke="#16161a" stroke-width="1.6"></line>
    <circle cx="569.3" cy="271.2" r="1.9" fill="#16161a" opacity="0.42"></circle><circle cx="581.4" cy="264.9" r="1.9" fill="#16161a" opacity="0.42"></circle><circle cx="576.8" cy="250.1" r="1.9" fill="#16161a" opacity="0.42"></circle><circle cx="588.9" cy="246.7" r="1.9" fill="#16161a" opacity="0.42"></circle><circle cx="584.4" cy="240.8" r="1.9" fill="#16161a" opacity="0.42"></circle><circle cx="596.4" cy="222.6" r="1.9" fill="#16161a" opacity="0.42"></circle><circle cx="591.9" cy="221.2" r="1.9" fill="#16161a" opacity="0.42"></circle><circle cx="572.3" cy="157.0" r="1.9" fill="#16161a" opacity="0.42"></circle><circle cx="570.8" cy="125.6" r="1.9" fill="#16161a" opacity="0.42"></circle>
  </g><g>
    <line x1="629.0" y1="90.7" x2="629.0" y2="154.0" stroke="#16161a" stroke-width="1"></line>
    <line x1="629.0" y1="242.2" x2="629.0" y2="268.6" stroke="#16161a" stroke-width="1"></line>
    <line x1="618.0" y1="90.7" x2="640.0" y2="90.7" stroke="#16161a" stroke-width="1"></line>
    <line x1="618.0" y1="268.6" x2="640.0" y2="268.6" stroke="#16161a" stroke-width="1"></line>
    <rect x="607.0" y="154.0" width="44.0"
      height="88.2" rx="2"
      fill="#5183c9" fill-opacity="0.85" stroke="#16161a" stroke-width="1"></rect>
    <line x1="607.0" y1="189.1" x2="651.0" y2="189.1" stroke="#16161a" stroke-width="1.6"></line>
    <circle cx="629.9" cy="268.6" r="1.9" fill="#16161a" opacity="0.42"></circle><circle cx="617.8" cy="261.2" r="1.9" fill="#16161a" opacity="0.42"></circle><circle cx="637.4" cy="252.0" r="1.9" fill="#16161a" opacity="0.42"></circle><circle cx="625.4" cy="245.5" r="1.9" fill="#16161a" opacity="0.42"></circle><circle cx="613.3" cy="241.1" r="1.9" fill="#16161a" opacity="0.42"></circle><circle cx="632.9" cy="214.3" r="1.9" fill="#16161a" opacity="0.42"></circle><circle cx="620.8" cy="207.5" r="1.9" fill="#16161a" opacity="0.42"></circle><circle cx="640.4" cy="202.8" r="1.9" fill="#16161a" opacity="0.42"></circle><circle cx="631.4" cy="175.3" r="1.9" fill="#16161a" opacity="0.42"></circle><circle cx="619.3" cy="168.3" r="1.9" fill="#16161a" opacity="0.42"></circle><circle cx="614.5" cy="161.9" r="1.9" fill="#16161a" opacity="0.42"></circle><circle cx="626.5" cy="155.1" r="1.9" fill="#16161a" opacity="0.42"></circle><circle cx="638.6" cy="150.9" r="1.9" fill="#16161a" opacity="0.42"></circle><circle cx="619.0" cy="121.2" r="1.9" fill="#16161a" opacity="0.42"></circle><circle cx="629.5" cy="90.7" r="1.9" fill="#16161a" opacity="0.42"></circle><circle cx="641.6" cy="34.0" r="1.9" fill="#16161a" opacity="0.42"></circle>
  </g>
    
  </g><g>
    <text x="746.0" y="22.0" font-size="12" font-weight="700" fill="#16161a">d) Guide × Visual  (n 20 vs 27)</text>
    <text x="746.0" y="32.0" font-size="9.5" fill="#5c5c66">2 rows above the axis</text>
    <line x1="746.0" y1="284.0"
        x2="926.0" y2="284.0"
        stroke="#d8d8e0" stroke-width="1" ></line>
      <text x="740.0" y="287.5" text-anchor="end"
        font-size="9.5" fill="#5c5c66">0</text><line x1="746.0" y1="200.7"
        x2="926.0" y2="200.7"
        stroke="#d8d8e0" stroke-width="1" opacity="0.6"></line>
      <text x="740.0" y="204.2" text-anchor="end"
        font-size="9.5" fill="#5c5c66">200</text><line x1="746.0" y1="117.3"
        x2="926.0" y2="117.3"
        stroke="#d8d8e0" stroke-width="1" opacity="0.6"></line>
      <text x="740.0" y="120.8" text-anchor="end"
        font-size="9.5" fill="#5c5c66">400</text><line x1="746.0" y1="34.0"
        x2="926.0" y2="34.0"
        stroke="#d8d8e0" stroke-width="1" opacity="0.6"></line>
      <text x="740.0" y="37.5" text-anchor="end"
        font-size="9.5" fill="#5c5c66">600</text>
    <g>
    <line x1="813.0" y1="227.7" x2="813.0" y2="250.7" stroke="#16161a" stroke-width="1"></line>
    <line x1="813.0" y1="269.0" x2="813.0" y2="281.8" stroke="#16161a" stroke-width="1"></line>
    <line x1="802.0" y1="227.7" x2="824.0" y2="227.7" stroke="#16161a" stroke-width="1"></line>
    <line x1="802.0" y1="281.8" x2="824.0" y2="281.8" stroke="#16161a" stroke-width="1"></line>
    <rect x="791.0" y="250.7" width="44.0"
      height="18.3" rx="2"
      fill="#bf5a64" fill-opacity="0.85" stroke="#16161a" stroke-width="1"></rect>
    <line x1="791.0" y1="258.0" x2="835.0" y2="258.0" stroke="#16161a" stroke-width="1.6"></line>
    <circle cx="823.1" cy="281.8" r="1.9" fill="#16161a" opacity="0.42"></circle><circle cx="811.0" cy="279.4" r="1.9" fill="#16161a" opacity="0.42"></circle><circle cx="815.5" cy="279.2" r="1.9" fill="#16161a" opacity="0.42"></circle><circle cx="803.5" cy="272.7" r="1.9" fill="#16161a" opacity="0.42"></circle><circle cx="808.0" cy="269.2" r="1.9" fill="#16161a" opacity="0.42"></circle><circle cx="827.6" cy="269.0" r="1.9" fill="#16161a" opacity="0.42"></circle><circle cx="800.5" cy="268.7" r="1.9" fill="#16161a" opacity="0.42"></circle><circle cx="820.1" cy="267.4" r="1.9" fill="#16161a" opacity="0.42"></circle><circle cx="824.6" cy="261.3" r="1.9" fill="#16161a" opacity="0.42"></circle><circle cx="812.5" cy="259.2" r="1.9" fill="#16161a" opacity="0.42"></circle><circle cx="809.0" cy="256.8" r="1.9" fill="#16161a" opacity="0.42"></circle><circle cx="821.1" cy="256.6" r="1.9" fill="#16161a" opacity="0.42"></circle><circle cx="816.6" cy="254.9" r="1.9" fill="#16161a" opacity="0.42"></circle><circle cx="828.6" cy="253.7" r="1.9" fill="#16161a" opacity="0.42"></circle><circle cx="825.6" cy="250.7" r="1.9" fill="#16161a" opacity="0.42"></circle><circle cx="806.0" cy="250.7" r="1.9" fill="#16161a" opacity="0.42"></circle><circle cx="801.5" cy="244.2" r="1.9" fill="#16161a" opacity="0.42"></circle><circle cx="813.6" cy="235.3" r="1.9" fill="#16161a" opacity="0.42"></circle><circle cx="810.6" cy="227.7" r="1.9" fill="#16161a" opacity="0.42"></circle><circle cx="822.6" cy="74.2" r="1.9" fill="#16161a" opacity="0.42"></circle>
  </g><g>
    <line x1="859.0" y1="105.0" x2="859.0" y2="188.4" stroke="#16161a" stroke-width="1"></line>
    <line x1="859.0" y1="259.2" x2="859.0" y2="281.3" stroke="#16161a" stroke-width="1"></line>
    <line x1="848.0" y1="105.0" x2="870.0" y2="105.0" stroke="#16161a" stroke-width="1"></line>
    <line x1="848.0" y1="281.3" x2="870.0" y2="281.3" stroke="#16161a" stroke-width="1"></line>
    <rect x="837.0" y="188.4" width="44.0"
      height="70.8" rx="2"
      fill="#5183c9" fill-opacity="0.85" stroke="#16161a" stroke-width="1"></rect>
    <line x1="837.0" y1="228.6" x2="881.0" y2="228.6" stroke="#16161a" stroke-width="1.6"></line>
    <circle cx="862.8" cy="281.3" r="1.9" fill="#16161a" opacity="0.42"></circle><circle cx="843.2" cy="280.0" r="1.9" fill="#16161a" opacity="0.42"></circle><circle cx="870.3" cy="276.3" r="1.9" fill="#16161a" opacity="0.42"></circle><circle cx="850.7" cy="269.8" r="1.9" fill="#16161a" opacity="0.42"></circle><circle cx="846.2" cy="266.7" r="1.9" fill="#16161a" opacity="0.42"></circle><circle cx="858.2" cy="264.1" r="1.9" fill="#16161a" opacity="0.42"></circle><circle cx="853.7" cy="262.2" r="1.9" fill="#16161a" opacity="0.42"></circle><circle cx="865.8" cy="256.2" r="1.9" fill="#16161a" opacity="0.42"></circle><circle cx="861.2" cy="252.8" r="1.9" fill="#16161a" opacity="0.42"></circle><circle cx="873.3" cy="247.9" r="1.9" fill="#16161a" opacity="0.42"></circle><circle cx="869.3" cy="246.7" r="1.9" fill="#16161a" opacity="0.42"></circle><circle cx="857.2" cy="237.3" r="1.9" fill="#16161a" opacity="0.42"></circle><circle cx="845.1" cy="230.5" r="1.9" fill="#16161a" opacity="0.42"></circle><circle cx="864.7" cy="228.6" r="1.9" fill="#16161a" opacity="0.42"></circle><circle cx="852.7" cy="227.3" r="1.9" fill="#16161a" opacity="0.42"></circle><circle cx="872.3" cy="219.9" r="1.9" fill="#16161a" opacity="0.42"></circle><circle cx="860.2" cy="212.5" r="1.9" fill="#16161a" opacity="0.42"></circle><circle cx="848.1" cy="210.9" r="1.9" fill="#16161a" opacity="0.42"></circle><circle cx="867.7" cy="206.0" r="1.9" fill="#16161a" opacity="0.42"></circle><circle cx="855.7" cy="191.4" r="1.9" fill="#16161a" opacity="0.42"></circle><circle cx="849.1" cy="185.4" r="1.9" fill="#16161a" opacity="0.42"></circle><circle cx="861.2" cy="174.3" r="1.9" fill="#16161a" opacity="0.42"></circle><circle cx="856.6" cy="167.6" r="1.9" fill="#16161a" opacity="0.42"></circle><circle cx="868.7" cy="159.6" r="1.9" fill="#16161a" opacity="0.42"></circle><circle cx="864.2" cy="158.5" r="1.9" fill="#16161a" opacity="0.42"></circle><circle cx="844.6" cy="105.0" r="1.9" fill="#16161a" opacity="0.42"></circle><circle cx="871.7" cy="34.0" r="1.9" fill="#16161a" opacity="0.42"></circle>
  </g>
    
  </g><g>
    <rect x="322" y="333" width="11" height="11" rx="2.5" fill="#bf5a64"></rect>
    <text x="339" y="342" font-size="11" fill="#16161a">Non-grounded</text>
    <rect x="472" y="333" width="11" height="11" rx="2.5" fill="#5183c9"></rect>
    <text x="489" y="342" font-size="11" fill="#16161a">Grounded</text></g>
</svg>
